<?xml version="1.0" encoding="UTF-8"?>
<svg width="80px" height="70px" viewBox="0 0 80 70" version="1.1" xmlns="http://www.w3.org/2000/svg" xmlns:xlink="http://www.w3.org/1999/xlink">
    <!-- Generator: sketchtool 52 (66869) - http://www.bohemiancoding.com/sketch -->
    <title>B6E988B7-1A5F-4485-9154-EAA30BA14437</title>
    <desc>Created with sketchtool.</desc>
    <g id="Page-1" stroke="none" stroke-width="1" fill="none" fill-rule="evenodd">
        <g id="Desktop-1440" transform="translate(-681.000000, -1360.000000)" fill="#000000">
            <g id="План" transform="translate(129.000000, 858.000000)">
                <g id="2" transform="translate(475.000000, 502.000000)">
                    <g id="Computer" transform="translate(77.000000, 0.000000)">
                        <g id="Expanded">
                            <g>
                                <path d="M73.3333333,63.3333333 L6.66666667,63.3333333 C2.99,63.3333333 0,60.21 0,56.3716667 L0,6.96166667 C0,3.12333333 2.99,0 6.66666667,0 L73.3333333,0 C77.01,0 80,3.12333333 80,6.96166667 L80,56.3716667 C80,60.21 77.01,63.3333333 73.3333333,63.3333333 Z M6.66666667,3.33333333 C4.82833333,3.33333333 3.33333333,4.96166667 3.33333333,6.96166667 L3.33333333,56.3716667 C3.33333333,58.3716667 4.82833333,60 6.66666667,60 L73.3333333,60 C75.1716667,60 76.6666667,58.3716667 76.6666667,56.3716667 L76.6666667,6.96166667 C76.6666667,4.96166667 75.1716667,3.33333333 73.3333333,3.33333333 L6.66666667,3.33333333 Z" id="Shape" fill-rule="nonzero"></path>
                                <path d="M63.3333333,70 L16.6666667,70 C15.7461921,70 15,69.2538079 15,68.3333333 C15,67.4128588 15.7461921,66.6666667 16.6666667,66.6666667 L63.3333333,66.6666667 C64.2538079,66.6666667 65,67.4128588 65,68.3333333 C65,69.2538079 64.2538079,70 63.3333333,70 Z" id="Path"></path>
                                <path d="M40,70 C39.0795254,70 38.3333333,69.2538079 38.3333333,68.3333333 L38.3333333,61.6666667 C38.3333333,60.7461921 39.0795254,60 40,60 C40.9204746,60 41.6666667,60.7461921 41.6666667,61.6666667 L41.6666667,68.3333333 C41.6666667,69.2538079 40.9204746,70 40,70 Z" id="Path"></path>
                                <circle id="Oval" cx="40" cy="55" r="3.33333333"></circle>
                                <polygon id="Path" points="1.66666667 46.6666667 78.3333333 46.6666667 78.3333333 50 1.66666667 50"></polygon>
                            </g>
                        </g>
                    </g>
                </g>
            </g>
        </g>
    </g>
</svg>