<?xml version="1.0" encoding="UTF-8"?>
<svg width="71px" height="70px" viewBox="0 0 71 70" version="1.1" xmlns="http://www.w3.org/2000/svg" xmlns:xlink="http://www.w3.org/1999/xlink">
    <!-- Generator: sketchtool 52 (66869) - http://www.bohemiancoding.com/sketch -->
    <title>589FFEF6-BB6B-4ED7-B2FC-FC5BA141F9A9</title>
    <desc>Created with sketchtool.</desc>
    <g id="Page-1" stroke="none" stroke-width="1" fill="none" fill-rule="evenodd">
        <g id="Desktop-1440" transform="translate(-218.000000, -1366.000000)" fill="#000000">
            <g id="План" transform="translate(129.000000, 858.000000)">
                <g id="1" transform="translate(2.000000, 508.000000)">
                    <g id="Diving" transform="translate(87.000000, 0.000000)">
                        <g id="Expanded">
                            <g>
                                <path d="M12.639375,17.5 L8.264375,17.5 C5.04729167,17.5 2.43104167,14.88375 2.43104167,11.6666667 L2.43104167,8.75 C2.43104167,3.924375 6.35541667,0 11.1810417,0 L18.4727083,0 C19.2781236,4.9317461e-17 19.9310417,0.652918073 19.9310417,1.45833333 L19.9310417,10.2083333 C19.9310417,14.2289583 16.66,17.5 12.639375,17.5 Z M11.1810417,2.91666667 C7.96395833,2.91666667 5.34770833,5.53291667 5.34770833,8.75 L5.34770833,11.6666667 C5.34770833,13.2752083 6.65583333,14.5833333 8.264375,14.5833333 L12.639375,14.5833333 C15.0514583,14.5833333 17.014375,12.6204167 17.014375,10.2083333 L17.014375,2.91666667 L11.1810417,2.91666667 Z" id="Shape" fill-rule="nonzero"></path>
                                <path d="M28.6810417,17.5 L24.3060417,17.5 C20.2854167,17.5 17.014375,14.2289583 17.014375,10.2083333 L17.014375,1.45833333 C17.014375,0.652918073 17.6672931,1.47952383e-16 18.4727083,0 L25.764375,0 C30.59,0 34.514375,3.924375 34.514375,8.75 L34.514375,11.6666667 C34.514375,14.88375 31.898125,17.5 28.6810417,17.5 Z M19.9310417,2.91666667 L19.9310417,10.2083333 C19.9310417,12.6204167 21.8939583,14.5833333 24.3060417,14.5833333 L28.6810417,14.5833333 C30.2895833,14.5833333 31.5977083,13.2752083 31.5977083,11.6666667 L31.5977083,8.75 C31.5977083,5.53291667 28.9814583,2.91666667 25.764375,2.91666667 L19.9310417,2.91666667 Z" id="Shape" fill-rule="nonzero"></path>
                                <path d="M2.43104167,11.6666667 C1.62562641,11.6666667 0.972708333,11.0137486 0.972708333,10.2083333 L0.972708333,7.29166667 C0.972708333,6.48625141 1.62562641,5.83333333 2.43104167,5.83333333 C3.23645693,5.83333333 3.889375,6.48625141 3.889375,7.29166667 L3.889375,10.2083333 C3.889375,11.0137486 3.23645693,11.6666667 2.43104167,11.6666667 Z" id="Path"></path>
                                <path d="M34.514375,11.6666667 C33.7089597,11.6666667 33.0560417,11.0137486 33.0560417,10.2083333 L33.0560417,7.29166667 C33.0560417,6.48625141 33.7089597,5.83333333 34.514375,5.83333333 C35.3197903,5.83333333 35.9727083,6.48625141 35.9727083,7.29166667 L35.9727083,10.2083333 C35.9727083,11.0137486 35.3197903,11.6666667 34.514375,11.6666667 Z" id="Path"></path>
                                <path d="M18.4727083,32.0833333 C15.255625,32.0833333 12.639375,29.4670833 12.639375,26.25 C12.639375,23.0329167 15.255625,20.4166667 18.4727083,20.4166667 C21.6897917,20.4166667 24.3060417,23.0329167 24.3060417,26.25 C24.3060417,29.4670833 21.6897917,32.0833333 18.4727083,32.0833333 Z M18.4727083,23.3333333 C16.8641667,23.3333333 15.5560417,24.6414583 15.5560417,26.25 C15.5560417,27.8585417 16.8641667,29.1666667 18.4727083,29.1666667 C20.08125,29.1666667 21.389375,27.8585417 21.389375,26.25 C21.389375,24.6414583 20.08125,23.3333333 18.4727083,23.3333333 Z" id="Shape" fill-rule="nonzero"></path>
                                <path d="M65.139375,70 L56.389375,70 C53.1722917,70 50.5560417,67.38375 50.5560417,64.1666667 L50.5560417,36.4583333 C50.5560417,30.830625 55.1366667,26.25 60.764375,26.25 C66.3920833,26.25 70.9727083,30.830625 70.9727083,36.4583333 L70.9727083,64.1666667 C70.9727083,67.38375 68.3564583,70 65.139375,70 Z M60.764375,29.1666667 C56.74375,29.1666667 53.4727083,32.4377083 53.4727083,36.4583333 L53.4727083,64.1666667 C53.4727083,65.7752083 54.7808333,67.0833333 56.389375,67.0833333 L65.139375,67.0833333 C66.7479167,67.0833333 68.0560417,65.7752083 68.0560417,64.1666667 L68.0560417,36.4583333 C68.0560417,32.4377083 64.785,29.1666667 60.764375,29.1666667 Z" id="Shape" fill-rule="nonzero"></path>
                                <path d="M63.6810417,29.1666667 L57.8477083,29.1666667 C57.0422931,29.1666667 56.389375,28.5137486 56.389375,27.7083333 L56.389375,21.875 C56.389375,21.0695847 57.0422931,20.4166667 57.8477083,20.4166667 L63.6810417,20.4166667 C64.4864569,20.4166667 65.139375,21.0695847 65.139375,21.875 L65.139375,27.7083333 C65.139375,28.5137486 64.4864569,29.1666667 63.6810417,29.1666667 Z M59.3060417,26.25 L62.2227083,26.25 L62.2227083,23.3333333 L59.3060417,23.3333333 L59.3060417,26.25 Z" id="Shape" fill-rule="nonzero"></path>
                                <path d="M69.514375,64.1666667 L52.014375,64.1666667 C51.2089597,64.1666667 50.5560417,63.5137486 50.5560417,62.7083333 C50.5560417,61.9029181 51.2089597,61.25 52.014375,61.25 L69.514375,61.25 C70.3197903,61.25 70.9727083,61.9029181 70.9727083,62.7083333 C70.9727083,63.5137486 70.3197903,64.1666667 69.514375,64.1666667 Z" id="Path"></path>
                                <path d="M69.514375,37.9166667 L52.014375,37.9166667 C51.2089597,37.9166667 50.5560417,37.2637486 50.5560417,36.4583333 C50.5560417,35.6529181 51.2089597,35 52.014375,35 L69.514375,35 C70.3197903,35 70.9727083,35.6529181 70.9727083,36.4583333 C70.9727083,37.2637486 70.3197903,37.9166667 69.514375,37.9166667 Z" id="Path"></path>
                                <path d="M22.1185417,70 C10.4591667,70 0.972708333,60.5135417 0.972708333,48.8541667 L0.972708333,37.9166667 C0.972708333,30.6789583 6.86,24.7916667 14.0977083,24.7916667 C14.9031236,24.7916667 15.5560417,25.4445847 15.5560417,26.25 C15.5560417,27.0554153 14.9031236,27.7083333 14.0977083,27.7083333 C8.47,27.7083333 3.889375,32.2889583 3.889375,37.9166667 L3.889375,48.8541667 C3.889375,58.9064583 12.06625,67.0833333 22.1185417,67.0833333 C32.1708333,67.0833333 40.3477083,58.9064583 40.3477083,48.8541667 L40.3477083,24.0625 C40.3477083,18.8358333 44.6002083,14.5833333 49.826875,14.5833333 L54.9310417,14.5833333 C58.9516667,14.5833333 62.2227083,17.854375 62.2227083,21.875 C62.2227083,22.6804153 61.5697903,23.3333333 60.764375,23.3333333 C59.9589597,23.3333333 59.3060417,22.6804153 59.3060417,21.875 C59.3060417,19.4629167 57.343125,17.5 54.9310417,17.5 L49.826875,17.5 C46.2041722,17.5040185 43.2683935,20.4397972 43.264375,24.0625 L43.264375,48.8541667 C43.264375,60.5135417 33.7779167,70 22.1185417,70 Z" id="Path"></path>
                            </g>
                        </g>
                    </g>
                </g>
            </g>
        </g>
    </g>
</svg>