<?xml version="1.0" encoding="UTF-8"?>
<svg width="80px" height="70px" viewBox="0 0 80 70" version="1.1" xmlns="http://www.w3.org/2000/svg" xmlns:xlink="http://www.w3.org/1999/xlink">
    <!-- Generator: sketchtool 52 (66869) - http://www.bohemiancoding.com/sketch -->
    <title>96CAD6B9-D5FE-405F-B018-3F16A5CD57B4</title>
    <desc>Created with sketchtool.</desc>
    <g id="Page-1" stroke="none" stroke-width="1" fill="none" fill-rule="evenodd">
        <g id="Desktop-1440" transform="translate(-1131.000000, -1348.000000)" fill="#000000">
            <g id="План" transform="translate(129.000000, 858.000000)">
                <g id="3" transform="translate(902.000000, 490.000000)">
                    <g id="Streamline" transform="translate(100.000000, 0.000000)">
                        <g id="Expanded">
                            <g>
                                <path d="M73.3333333,70 L6.66666667,70 C2.99,70 0,67.01 0,63.3333333 L0,20 C0,16.3233333 2.99,13.3333333 6.66666667,13.3333333 L73.3333333,13.3333333 C77.01,13.3333333 80,16.3233333 80,20 L80,63.3333333 C80,67.01 77.01,70 73.3333333,70 Z M6.66666667,16.6666667 C4.82833333,16.6666667 3.33333333,18.1616667 3.33333333,20 L3.33333333,63.3333333 C3.33333333,65.1716667 4.82833333,66.6666667 6.66666667,66.6666667 L73.3333333,66.6666667 C75.1716667,66.6666667 76.6666667,65.1716667 76.6666667,63.3333333 L76.6666667,20 C76.6666667,18.1616667 75.1716667,16.6666667 73.3333333,16.6666667 L6.66666667,16.6666667 Z" id="Shape" fill-rule="nonzero"></path>
                                <path d="M53.3333333,8.33333333 L50,8.33333333 L50,5 C50,4.08 49.2516667,3.33333333 48.3333333,3.33333333 L31.6666667,3.33333333 C30.7483333,3.33333333 30,4.08 30,5 L30,8.33333333 L26.6666667,8.33333333 L26.6666667,5 C26.6666667,2.24333333 28.91,0 31.6666667,0 L48.3333333,0 C51.09,0 53.3333333,2.24333333 53.3333333,5 L53.3333333,8.33333333 Z" id="Path"></path>
                                <path d="M66.6666667,30 L11.6666667,30 C10.7461921,30 10,29.2538079 10,28.3333333 C10,27.4128588 10.7461921,26.6666667 11.6666667,26.6666667 L66.6666667,26.6666667 C67.5871412,26.6666667 68.3333333,27.4128588 68.3333333,28.3333333 C68.3333333,29.2538079 67.5871412,30 66.6666667,30 Z" id="Path"></path>
                                <path d="M66.6666667,43.3333333 L11.6666667,43.3333333 C10.7461921,43.3333333 10,42.5871412 10,41.6666667 C10,40.7461921 10.7461921,40 11.6666667,40 L66.6666667,40 C67.5871412,40 68.3333333,40.7461921 68.3333333,41.6666667 C68.3333333,42.5871412 67.5871412,43.3333333 66.6666667,43.3333333 Z" id="Path"></path>
                                <path d="M66.6666667,56.6666667 L11.6666667,56.6666667 C10.7461921,56.6666667 10,55.9204746 10,55 C10,54.0795254 10.7461921,53.3333333 11.6666667,53.3333333 L66.6666667,53.3333333 C67.5871412,53.3333333 68.3333333,54.0795254 68.3333333,55 C68.3333333,55.9204746 67.5871412,56.6666667 66.6666667,56.6666667 Z" id="Path"></path>
                                <polygon id="Path" points="26.6666667 8.33333333 30 8.33333333 30 15 26.6666667 15"></polygon>
                                <polygon id="Path" points="50 8.33333333 53.3333333 8.33333333 53.3333333 15 50 15"></polygon>
                                <polygon id="Path" points="28.3333333 6.66666667 51.6666667 6.66666667 51.6666667 10 28.3333333 10"></polygon>
                            </g>
                        </g>
                    </g>
                </g>
            </g>
        </g>
    </g>
</svg>