<?xml version="1.0" encoding="UTF-8"?>
<svg width="29px" height="40px" viewBox="0 0 29 40" version="1.1" xmlns="http://www.w3.org/2000/svg" xmlns:xlink="http://www.w3.org/1999/xlink">
    <!-- Generator: Sketch 52 (66869) - http://www.bohemiancoding.com/sketch -->
    <title>Geo</title>
    <desc>Created with Sketch.</desc>
    <g id="Page-1" stroke="none" stroke-width="1" fill="none" fill-rule="evenodd">
        <g id="Desktop-1280" transform="translate(-40.000000, -3354.000000)" fill="#000000" fill-rule="nonzero">
            <g id="Подвал" transform="translate(39.000000, 3227.000000)">
                <g id="Адрес" transform="translate(1.000000, 123.000000)">
                    <g id="Geo" transform="translate(0.000000, 4.000000)">
                        <path d="M14.4303797,0.198097526 C6.47780035,0.198097526 1.43884904e-13,6.64064388 1.43884904e-13,14.5499494 C1.43884904e-13,25.528542 10.5208337,35.6541068 13.4101069,38.5276317 L14.4303797,39.5423535 L15.4506526,38.5276317 C18.3361505,35.6578354 28.8607595,25.5572457 28.8607595,14.5499494 C28.8607595,6.64064388 22.3829591,0.198097526 14.4303797,0.198097526 Z M14.4303797,3.06846795 C20.8232198,3.06846795 25.9746835,8.19179203 25.9746835,14.5499494 C25.9746835,23.0140976 17.9196231,31.7446594 14.4303797,35.298465 C10.9439307,31.7435142 2.88607595,22.9819494 2.88607595,14.5499494 C2.88607595,8.19179203 8.03753739,3.06846795 14.4303797,3.06846795 Z M14.4303797,8.80920869 C11.2596005,8.80920869 8.65822756,11.3962735 8.65822785,14.5499494 C8.65822756,17.7033383 11.2596005,20.2906902 14.4303797,20.2906902 C17.601159,20.2906902 20.2025316,17.7033383 20.2025316,14.5499494 C20.2025316,11.3962735 17.601159,8.80920869 14.4303797,8.80920869 Z M14.4303797,11.6795791 C16.0414075,11.6795791 17.3164557,12.9477087 17.3164557,14.5499494 C17.3164557,16.1521902 16.0414075,17.4203198 14.4303797,17.4203198 C12.8193519,17.4203198 11.5443038,16.1521902 11.5443038,14.5499494 C11.5443038,12.9477087 12.8193519,11.6795791 14.4303797,11.6795791 Z"></path>
                    </g>
                </g>
            </g>
        </g>
    </g>
</svg>