<?xml version="1.0" encoding="UTF-8"?>
<svg width="143px" height="40px" viewBox="0 0 143 40" version="1.1" xmlns="http://www.w3.org/2000/svg" xmlns:xlink="http://www.w3.org/1999/xlink">
    <!-- Generator: sketchtool 52 (66869) - http://www.bohemiancoding.com/sketch -->
    <title>00114DDB-74F0-4263-B624-0F80069FA5A1</title>
    <desc>Created with sketchtool.</desc>
    <g id="Page-1" stroke="none" stroke-width="1" fill="none" fill-rule="evenodd">
        <g id="Desktop-1280" transform="translate(-40.000000, -75.000000)" fill="#000000">
            <g id="Шапка" transform="translate(40.000000, 75.000000)">
                <g id="MosLogo">
                    <g id="Group">
                        <polygon id="Path" points="10.3021505 17.0769231 10.3021505 10 6.91935484 13.8461538 3.53655914 10 3.53655914 17.0769231 0.461290323 17.0769231 0.461290323 5 2.46021505 5 6.91935484 10.1538462 11.3784946 5 13.3774194 5 13.3774194 17.0769231"></polygon>
                        <path d="M29.0612903,11.0769231 C29.0612903,14.4615385 26.2935484,17.2307692 22.9107527,17.2307692 C19.527957,17.2307692 16.7602151,14.4615385 16.7602151,11.0769231 C16.7602151,7.69230769 19.527957,4.92307692 22.9107527,4.92307692 C26.2935484,4.84615385 29.0612903,7.61538462 29.0612903,11.0769231 Z M19.7586022,11.0769231 C19.7586022,13.0769231 21.2193548,14.3076923 22.833871,14.3076923 C24.4483871,14.3076923 25.9091398,13.0769231 25.9091398,11.0769231 C25.9091398,9.07692308 24.3715054,7.84615385 22.833871,7.84615385 C21.2193548,7.84615385 19.7586022,9.07692308 19.7586022,11.0769231 Z" id="Shape" fill-rule="nonzero"></path>
                        <path d="M42.5155914,7.07692308 L40.6704301,9.07692308 C39.6709677,8.15384615 38.8252688,7.84615385 37.7489247,7.84615385 C36.1344086,7.84615385 34.6736559,9.07692308 34.6736559,11.0769231 C34.6736559,13.0769231 36.1344086,14.3076923 37.7489247,14.3076923 C38.8252688,14.3076923 39.6709677,14 40.6704301,13.0769231 L42.5155914,15.0769231 C41.3623656,16.4615385 39.6709677,17.3076923 37.7489247,17.3076923 C34.366129,17.3076923 31.5983871,14.5384615 31.5983871,11.1538462 C31.5983871,7.76923077 34.366129,5 37.7489247,5 C39.6709677,4.84615385 41.3623656,5.76923077 42.5155914,7.07692308 Z" id="Path"></path>
                        <polygon id="Path" points="48.666129 17.0769231 45.5908602 17.0769231 45.5908602 5 48.666129 5 48.666129 9.38461538 50.4344086 9.38461538 53.5865591 5 56.9693548 5 52.8177419 10.8461538 57.2 17 53.8172043 17 50.4344086 12.3076923 48.666129 12.3076923 48.666129 17.0769231"></polygon>
                        <path d="M71.1924731,11.0769231 C71.1924731,14.4615385 68.4247312,17.2307692 65.0419355,17.2307692 C61.6591398,17.2307692 58.8913978,14.4615385 58.8913978,11.0769231 C58.8913978,7.69230769 61.6591398,4.92307692 65.0419355,4.92307692 C68.4247312,4.92307692 71.1924731,7.61538462 71.1924731,11.0769231 Z M61.8897849,11.0769231 C61.8897849,13.0769231 63.3505376,14.3076923 64.9650538,14.3076923 C66.5795699,14.3076923 68.0403226,13.0769231 68.0403226,11.0769231 C68.0403226,9.07692308 66.5026882,7.84615385 64.9650538,7.84615385 C63.3505376,7.84615385 61.8897849,9.07692308 61.8897849,11.0769231 Z" id="Shape" fill-rule="nonzero"></path>
                        <path d="M80.8026882,5 C83.6473118,5 84.9543011,6.23076923 84.9543011,8.30769231 C84.9543011,9.46153846 84.4930108,10.3846154 83.3397849,10.7692308 C84.8005376,11.0769231 85.4924731,12.1538462 85.4924731,13.4615385 C85.4924731,16 84.1086022,17.0769231 80.8026882,17.0769231 L74.4983871,17.0769231 L74.4983871,5 L80.8026882,5 Z M77.5736559,9.76923077 L80.6489247,9.76923077 C81.4946237,9.76923077 81.8790323,9.30769231 81.8790323,8.69230769 C81.8790323,8.07692308 81.4946237,7.61538462 80.572043,7.61538462 L77.5736559,7.61538462 L77.5736559,9.76923077 Z M80.8795699,14.4615385 C82.0327957,14.4615385 82.4172043,13.9230769 82.4172043,13.2307692 C82.4172043,12.5384615 82.0327957,12 80.9564516,12 L77.5736559,12 L77.5736559,14.4615385 L80.8795699,14.4615385 Z" id="Shape" fill-rule="nonzero"></path>
                        <path d="M98.9467742,7.07692308 L97.1016129,9.07692308 C96.1021505,8.15384615 95.2564516,7.84615385 94.1801075,7.84615385 C92.5655914,7.84615385 91.1048387,9.07692308 91.1048387,11.0769231 C91.1048387,13.0769231 92.5655914,14.3076923 94.1801075,14.3076923 C95.2564516,14.3076923 96.1021505,14 97.1016129,13.0769231 L98.9467742,15.0769231 C97.7935484,16.4615385 96.1021505,17.3076923 94.1801075,17.3076923 C90.7973118,17.3076923 88.0295699,14.5384615 88.0295699,11.1538462 C88.0295699,7.76923077 90.7973118,5 94.1801075,5 C96.1021505,4.84615385 97.7935484,5.76923077 98.9467742,7.07692308 Z" id="Path"></path>
                        <polygon id="Path" points="105.174194 17.0769231 102.098925 17.0769231 102.098925 5 105.174194 5 105.174194 9.38461538 106.942473 9.38461538 110.094624 5 113.477419 5 109.325806 10.8461538 113.708065 17 110.325269 17 106.942473 12.3076923 105.174194 12.3076923 105.174194 17.0769231"></polygon>
                        <polygon id="Path" points="124.548387 17.0769231 124.548387 10 118.397849 17.0769231 116.398925 17.0769231 116.398925 5 119.474194 5 119.474194 12.0769231 125.624731 5 127.623656 5 127.623656 17.0769231"></polygon>
                        <path d="M139.770968,17.0769231 L139.770968,10 L133.62043,17.0769231 L131.621505,17.0769231 L131.621505,5 L134.696774,5 L134.696774,12.0769231 L140.847312,5 L142.846237,5 L142.846237,17.0769231 L139.770968,17.0769231 Z M133.543548,0.307692308 L135.696237,0.307692308 C135.696237,1.15384615 136.388172,1.84615385 137.387634,1.84615385 C138.310215,1.84615385 139.079032,1.15384615 139.079032,0.307692308 L141.154839,0.307692308 C141.154839,2.46153846 139.463441,4 137.387634,4 C135.234946,4 133.543548,2.46153846 133.543548,0.307692308 Z" id="Shape" fill-rule="nonzero"></path>
                        <polygon id="Path" points="8.76451613 39.5384615 8.76451613 30.4615385 3.53655914 30.4615385 3.53655914 39.5384615 0.461290323 39.5384615 0.461290323 27.4615385 11.8397849 27.4615385 11.8397849 39.5384615"></polygon>
                        <path d="M27.6005376,33.5384615 C27.6005376,36.9230769 24.8327957,39.6923077 21.45,39.6923077 C18.0672043,39.6923077 15.2994624,36.9230769 15.2994624,33.5384615 C15.2994624,30.1538462 18.0672043,27.3846154 21.45,27.3846154 C24.8327957,27.3076923 27.6005376,30.0769231 27.6005376,33.5384615 Z M18.2978495,33.5384615 C18.2978495,35.5384615 19.7586022,36.7692308 21.3731183,36.7692308 C22.9876344,36.7692308 24.4483871,35.5384615 24.4483871,33.5384615 C24.4483871,31.5384615 22.9107527,30.3076923 21.3731183,30.3076923 C19.7586022,30.3076923 18.2978495,31.5384615 18.2978495,33.5384615 Z" id="Shape" fill-rule="nonzero"></path>
                        <polygon id="Path" points="32.1365591 39.5384615 28.9075269 39.5384615 34.4430108 27.4615385 36.4419355 27.4615385 41.9774194 39.5384615 38.7483871 39.5384615 35.4424731 32"></polygon>
                        <polygon id="Path" points="52.7408602 39.5384615 52.7408602 32.4615385 46.5903226 39.5384615 44.5913978 39.5384615 44.5913978 27.4615385 47.6666667 27.4615385 47.6666667 34.5384615 53.8172043 27.4615385 55.816129 27.4615385 55.816129 39.5384615"></polygon>
                        <polygon id="Path" points="65.5801075 39.5384615 62.5817204 39.5384615 62.5817204 30.4615385 58.8145161 30.4615385 58.8145161 27.4615385 69.3473118 27.4615385 69.3473118 30.4615385 65.5801075 30.4615385 65.5801075 39.5384615"></polygon>
                        <path d="M82.494086,30.6153846 C83.0322581,31.6923077 83.0322581,33.3846154 82.6478495,34.3846154 L74.2677419,34.3846154 C74.2677419,36 75.6516129,36.9230769 77.266129,36.9230769 C78.4962366,36.9230769 79.8032258,36.6153846 80.8795699,36.0769231 L82.494086,37.8461538 C81.1870968,38.8461538 79.4188172,39.6923077 77.266129,39.6923077 C73.5758065,39.6923077 71.1155914,37.0769231 71.1155914,33.5384615 C71.1155914,30.1538462 73.422043,27.3846154 77.1892473,27.3846154 C79.8032258,27.3076923 81.5715054,28.5384615 82.494086,30.6153846 Z M74.4215054,32.4615385 L79.9569892,32.4615385 C79.9569892,32.1538462 79.8801075,31.7692308 79.6494624,31.4615385 C79.2650538,30.6923077 78.3424731,30.0769231 77.1892473,30.0769231 C75.5747312,30.1538462 74.4983871,31.3076923 74.4215054,32.4615385 Z" id="Shape" fill-rule="nonzero"></path>
                        <polygon id="Path" points="88.1833333 39.5384615 84.6467742 39.5384615 89.3365591 33.3076923 84.8774194 27.5384615 88.4139785 27.5384615 91.1048387 30.8461538 93.7188172 27.5384615 97.2553763 27.5384615 92.7962366 33.4615385 97.4860215 39.6153846 93.9494624 39.6153846 91.027957 35.9230769"></polygon>
                    </g>
                </g>
            </g>
        </g>
    </g>
</svg>