<?xml version="1.0" encoding="UTF-8"?>
<svg width="25px" height="16px" viewBox="0 0 25 16" version="1.1" xmlns="http://www.w3.org/2000/svg" xmlns:xlink="http://www.w3.org/1999/xlink">
    <!-- Generator: Sketch 52 (66869) - http://www.bohemiancoding.com/sketch -->
    <title>vk</title>
    <desc>Created with Sketch.</desc>
    <g id="Page-1" stroke="none" stroke-width="1" fill="none" fill-rule="evenodd">
        <g id="Desktop-1440" transform="translate(-1285.000000, -87.000000)" fill="#000000" fill-rule="nonzero">
            <g id="Шапка" transform="translate(130.000000, 75.000000)">
                <g id="Телефон-+-вк" transform="translate(1014.000000, 10.000000)">
                    <g id="vk" transform="translate(141.000000, 2.000000)">
                        <path d="M13.4799025,15.2874669 C14.1036117,15.2874669 14.3586258,14.8439402 14.3514567,14.2878933 C14.319708,12.1937048 15.082702,11.0663169 16.4601878,12.5356354 C17.9841276,14.1611714 18.2995667,15.2874669 20.1502113,15.2874669 L23.427501,15.2874669 C24.2550167,15.2874669 24.5806974,15.003435 24.5806974,14.5577236 C24.5806974,13.6149564 23.1253759,11.9511853 21.8922956,10.7298485 C20.1655736,9.02019536 20.0846655,8.97977545 21.5717357,6.92163713 C23.4162353,4.36644312 25.8291399,1.0924301 23.694805,1.0924301 L19.6176517,1.0924301 C18.8270055,1.0924301 18.769653,1.5676372 18.4880109,2.2755319 C17.4689786,4.83946536 15.5323052,8.16045287 14.7969633,7.65247287 C14.0278243,7.12264427 14.380133,5.02408604 14.4385097,1.9051981 C14.453872,1.0815058 14.4497754,0.516719439 13.2699511,0.223948171 C12.6257588,0.0655458062 11.9989771,9.32587341e-14 11.4172582,9.32587341e-14 C9.08935832,9.32587341e-14 7.48348634,1.04108589 8.39600671,1.22242929 C10.0049512,1.54251131 9.85030404,5.25568123 9.47546402,6.85936862 C8.82205438,9.65161996 6.36613536,4.64829009 5.34300646,2.15645702 C5.09618558,1.55780533 5.02039825,1.0924301 4.13962663,1.0924301 L0.806008451,1.0924301 C0.30212515,1.0924301 -3.73034936e-14,1.26721892 -3.73034936e-14,1.65612404 C-3.73034936e-14,2.31376696 3.03149303,8.99725433 5.92574955,12.3291661 C8.74831536,15.5791457 11.5381083,15.2874669 13.4799025,15.2874669 Z"></path>
                    </g>
                </g>
            </g>
        </g>
    </g>
</svg>